Coordinates
version=1
nRows=9
nColumns=36
inDegrees=yes

Units are S.I. units (second, meters, Newtons, ...)
If the header above contains a line with 'inDegrees', this indicates whether rotational values are in degrees (yes) or radians (no).

endheader
time	pelvis_tilt	pelvis_list	pelvis_rotation	pelvis_tx	pelvis_ty	pelvis_tz	hip_flexion_r	hip_adduction_r	hip_rotation_r	knee_angle_r	knee_angle_r_beta	ankle_angle_r	subtalar_angle_r	mtp_angle_r	hip_flexion_l	hip_adduction_l	hip_rotation_l	knee_angle_l	knee_angle_l_beta	ankle_angle_l	subtalar_angle_l	mtp_angle_l	lumbar_extension	lumbar_bending	lumbar_rotation	arm_flex_r	arm_add_r	arm_rot_r	elbow_flex_r	pro_sup_r	arm_flex_l	arm_add_l	arm_rot_l	elbow_flex_l	pro_sup_l
      7.40000000	    -12.07384829	      1.48064322	     -8.03941086	      0.15769330	      0.71645281	     -0.12040670	     58.00023463	    -14.13105073	     -5.61555536	     78.88894929	      1.37687191	     35.30955097	    -10.73048988	     -7.49999987	     54.88906738	    -10.85682337	     -2.34661374	     79.17989118	      1.38194980	     36.35020837	     -7.88483052	     -7.49999987	    -13.92197154	     -0.31035917	      4.52720012	     51.08993931	     -0.90263239	     60.05858971	    128.29891784	     87.00897676	     50.90298394	      0.33163911	     68.00076237	    131.84229345	     88.75047329
      7.41666670	    -12.41583744	      1.60212173	     -8.15055185	      0.15868152	      0.71554093	     -0.11981069	     59.07591622	    -14.14944813	     -5.35914841	     79.84411548	      1.39354270	     35.56522308	    -10.84123833	     -7.49999987	     55.66734960	    -10.84714374	     -2.36072250	     80.05623400	      1.39724487	     36.93040002	     -7.62925001	     -7.49999987	    -13.91357102	     -0.45390269	      4.89044851	     51.28886630	     -1.12603559	     59.82728009	    128.85590602	     91.33525102	     50.28485802	      0.20313225	     69.28095397	    132.26904486	     97.52968308
      7.43333330	    -12.70338177	      1.73030146	     -8.18620975	      0.15760167	      0.71243401	     -0.12038975	     60.02388836	    -14.17758657	     -5.12118078	     80.58050062	      1.40639505	     35.55858002	    -11.11256932	     -7.49999987	     56.46091070	    -10.82745788	     -2.35094253	     80.76181773	      1.40955963	     37.26641238	     -7.51670023	     -7.49999987	    -14.01908714	     -0.53063754	      5.28003166	     52.15283868	     -1.30621294	     60.18325759	    129.26454681	     90.43313905	     49.94369274	      0.21861672	     71.06303778	    132.67769155	     96.35870883
      7.45000000	    -12.71902730	      1.71948066	     -8.13653757	      0.15863269	      0.71539199	     -0.11991129	     60.41177360	    -14.12579068	     -5.00398305	     81.01112520	      1.41391087	     35.58516506	    -11.20088652	     -7.49999987	     56.77801924	    -10.77619090	     -2.22334945	     81.15430172	      1.41640977	     37.34546796	     -7.50835049	     -7.49999987	    -14.63770020	     -0.58055317	      5.43398813	     52.27302172	     -1.51314240	     60.22679573	    129.26411664	     90.43447119	     49.80535139	     -0.26501129	     71.24640369	    132.51525236	     96.38815692
      7.46666670	    -12.87440528	      1.75338465	     -8.30378868	      0.15795143	      0.70897165	     -0.12005745	     60.91804861	    -13.97763860	     -4.78109697	     81.58928932	      1.42400173	     35.49122789	    -11.66122366	     -7.49999987	     57.06178469	    -10.78110205	     -2.09229799	     81.44382245	      1.42146286	     37.41398415	     -7.53601269	     -7.49999987	    -14.65003551	     -0.64212080	      5.67733220	     53.42399701	     -1.21556395	     59.95900441	    129.29686144	     86.69193212	     50.70733016	     -0.80857138	     69.20020919	    132.73099216	     92.30986039
      7.48333330	    -12.83517067	      1.85550297	     -8.46048728	      0.16673685	      0.71044756	     -0.11533464	     60.73876030	    -13.96536812	     -4.61059988	     81.97503215	      1.43073422	     35.51502940	    -11.97982692	     -7.49999987	     56.70335569	    -10.71538669	     -2.03640880	     81.38036694	      1.42035535	     37.64948978	     -7.37087796	     -7.49999987	    -14.68118479	     -0.99480178	      5.99512969	     52.77666623	     -1.11695924	     61.20892494	    129.51452605	     86.90975543	     49.94022498	     -1.54706475	     68.72249020	    132.47251192	     92.46273019
      7.50000000	    -12.83576679	      1.90724995	     -8.47446059	      0.16602318	      0.71041000	     -0.11564754	     60.56465136	    -13.84543428	     -4.41849103	     82.17250914	      1.43418084	     35.39013655	    -12.61452783	     -7.49999987	     56.38975079	    -10.73970342	     -2.07951002	     81.28869200	      1.41875532	     37.78387483	     -7.05489622	     -7.49999987	    -14.70587270	     -1.06118116	      6.16274593	     52.61150934	     -0.96968580	     61.73010449	    128.84644662	     87.02372240	     49.43879020	     -1.45618144	     69.32199815	    132.82588632	     92.50909474
      7.51666670	    -12.66975863	      1.84460327	     -8.41434471	      0.17404005	      0.70872637	     -0.11157144	     60.18209309	    -13.58759169	     -4.30022996	     82.47018900	      1.43937633	     35.41768817	    -13.01894261	     -7.49999987	     55.87661267	    -10.81596676	     -2.00148580	     81.23190663	      1.41776423	     37.90590591	     -6.87902268	     -7.49999987	    -14.67586628	     -1.22392370	      6.33199347	     51.91694437	     -0.66174181	     62.22840178	    128.49895139	     87.21159347	     48.97733396	     -1.30217884	     70.09452224	    132.71354882	     92.74529924
      7.53333330	    -12.80608024	      1.87645862	     -8.30548753	      0.16515254	      0.70705828	     -0.11633520	     60.28395764	    -13.53383139	     -4.20846985	     82.70087025	      1.44340248	     35.54980231	    -13.47579919	     -7.49999987	     55.96842416	    -10.79156871	     -1.94381955	     81.32572489	      1.41940167	     38.03425432	     -6.63200579	     -7.49999987	    -14.71156764	     -1.26311619	      6.49705125	     52.50711689	     -0.91473630	     62.25260164	    128.19102836	     87.30057026	     49.35589389	     -0.79361664	     69.93979837	    132.52618360	     92.83668499
